{
    "accessors" : [
        {
            "bufferView" : 0,
            "componentType" : 5123,
            "count" : 648,
            "max" : [
                234
            ],
            "min" : [
                0
            ],
            "type" : "SCALAR"
        },
        {
            "bufferView" : 1,
            "componentType" : 5126,
            "count" : 235,
            "max" : [
                -0.3411020040512085,
                -5.938529968261719,
                -0.4681220054626465
            ],
            "min" : [
                -0.7010220289230347,
                -6.347953796386719,
                -0.4890519976615906
            ],
            "type" : "VEC3"
        },
        {
            "bufferView" : 2,
            "componentType" : 5126,
            "count" : 235,
            "max" : [
                1.0,
                1.0,
                1.0
            ],
            "min" : [
                -1.0,
                -1.0,
                -1.0
            ],
            "type" : "VEC3"
        },
        {
            "bufferView" : 3,
            "componentType" : 5123,
            "count" : 1128,
            "max" : [
                823
            ],
            "min" : [
                0
            ],
            "type" : "SCALAR"
        },
        {
            "bufferView" : 4,
            "componentType" : 5126,
            "count" : 824,
            "max" : [
                -0.3342219889163971,
                -5.928971767425537,
                -0.1460919976234436
            ],
            "min" : [
                -0.7670440077781677,
                -6.3572468757629395,
                -0.7611160278320312
            ],
            "type" : "VEC3"
        },
        {
            "bufferView" : 5,
            "componentType" : 5126,
            "count" : 824,
            "max" : [
                1.0,
                1.0,
                1.0
            ],
            "min" : [
                -1.0,
                -1.0,
                -1.0
            ],
            "type" : "VEC3"
        }
    ],
    "asset" : {
        "generator" : "Khronos Blender glTF 2.0 exporter",
        "version" : "2.0"
    },
    "bufferViews" : [
        {
            "buffer" : 0,
            "byteLength" : 1296,
            "byteOffset" : 0,
            "target" : 34963
        },
        {
            "buffer" : 0,
            "byteLength" : 2820,
            "byteOffset" : 1296,
            "target" : 34962
        },
        {
            "buffer" : 0,
            "byteLength" : 2820,
            "byteOffset" : 4116,
            "target" : 34962
        },
        {
            "buffer" : 0,
            "byteLength" : 2256,
            "byteOffset" : 6936,
            "target" : 34963
        },
        {
            "buffer" : 0,
            "byteLength" : 9888,
            "byteOffset" : 9192,
            "target" : 34962
        },
        {
            "buffer" : 0,
            "byteLength" : 9888,
            "byteOffset" : 19080,
            "target" : 34962
        }
    ],
    "buffers" : [
        {
            "byteLength" : 28968,
            "uri" : "chair1.bin"
        }
    ],
    "materials" : [
        {
            "alphaMode" : "BLEND",
            "name" : "BMD_BeechWood.003",
            "pbrMetallicRoughness" : {
                "baseColorFactor" : [
                    0.7340260148048401,
                    0.3233200013637543,
                    0.07434900104999542,
                    1.0
                ],
                "metallicFactor" : 0.0
            }
        },
        {
            "alphaMode" : "BLEND",
            "name" : "mouse",
            "pbrMetallicRoughness" : {
                "baseColorFactor" : [
                    0.6399999856948853,
                    0.004726000130176544,
                    0.013686999678611755,
                    1.0
                ],
                "metallicFactor" : 0.0
            }
        }
    ],
    "meshes" : [
        {
            "name" : "Cube_021_Cube.020",
            "primitives" : [
                {
                    "attributes" : {
                        "NORMAL" : 2,
                        "POSITION" : 1
                    },
                    "indices" : 0,
                    "material" : 1
                }
            ]
        },
        {
            "name" : "Cube_022_Cube.023",
            "primitives" : [
                {
                    "attributes" : {
                        "NORMAL" : 5,
                        "POSITION" : 4
                    },
                    "indices" : 3,
                    "material" : 0
                }
            ]
        }
    ],
    "nodes" : [
        {
            "name" : "Camera",
            "rotation" : [
                0.483536034822464,
                0.33687159419059753,
                -0.20870360732078552,
                0.7804827094078064
            ],
            "translation" : [
                7.481131553649902,
                5.34366512298584,
                6.5076398849487305
            ]
        },
        {
            "mesh" : 0,
            "name" : "Cube_021_Cube.020",
            "rotation" : [
                0.7071068286895752,
                0.0,
                -0.0,
                0.7071068286895752
            ]
        },
        {
            "mesh" : 1,
            "name" : "Cube_022_Cube.023",
            "rotation" : [
                0.7071068286895752,
                0.0,
                -0.0,
                0.7071068286895752
            ]
        },
        {
            "name" : "Lamp",
            "rotation" : [
                0.16907575726509094,
                0.7558802962303162,
                -0.27217137813568115,
                0.570947527885437
            ],
            "scale" : [
                1.0,
                1.0,
                0.9999999403953552
            ],
            "translation" : [
                4.076245307922363,
                5.903861999511719,
                -1.0054539442062378
            ]
        }
    ],
    "scene" : 0,
    "scenes" : [
        {
            "name" : "Scene",
            "nodes" : [
                1,
                2,
                3,
                0
            ]
        }
    ]
}
