<?xml version="1.0" encoding="UTF-8" standalone="no"?>
<!-- Created with Inkscape (http://www.inkscape.org/) -->

<svg
   xmlns:dc="http://purl.org/dc/elements/1.1/"
   xmlns:cc="http://creativecommons.org/ns#"
   xmlns:rdf="http://www.w3.org/1999/02/22-rdf-syntax-ns#"
   xmlns:svg="http://www.w3.org/2000/svg"
   xmlns="http://www.w3.org/2000/svg"
   xmlns:sodipodi="http://sodipodi.sourceforge.net/DTD/sodipodi-0.dtd"
   xmlns:inkscape="http://www.inkscape.org/namespaces/inkscape"
   width="210mm"
   height="297mm"
   viewBox="0 0 210 297"
   version="1.1"
   id="svg5183"
   inkscape:version="0.92.3 (2405546, 2018-03-11)"
   sodipodi:docname="car1.svg">
  <defs
     id="defs5177" />
  <sodipodi:namedview
     id="base"
     pagecolor="#ffffff"
     bordercolor="#666666"
     borderopacity="1.0"
     inkscape:pageopacity="0.0"
     inkscape:pageshadow="2"
     inkscape:zoom="0.35"
     inkscape:cx="437.02097"
     inkscape:cy="544.31271"
     inkscape:document-units="mm"
     inkscape:current-layer="layer1"
     showgrid="false"
     inkscape:window-width="1869"
     inkscape:window-height="1025"
     inkscape:window-x="51"
     inkscape:window-y="27"
     inkscape:window-maximized="1" />
  <metadata
     id="metadata5180">
    <rdf:RDF>
      <cc:Work
         rdf:about="">
        <dc:format>image/svg+xml</dc:format>
        <dc:type
           rdf:resource="http://purl.org/dc/dcmitype/StillImage" />
        <dc:title></dc:title>
      </cc:Work>
    </rdf:RDF>
  </metadata>
  <g
     inkscape:label="Capa 1"
     inkscape:groupmode="layer"
     id="layer1">
    <g
       id="g5786"
       transform="matrix(0.71144086,0,0,0.91420532,1.7956994,-78.723405)">
      <g
         id="g5730">
	<path
   id="path5728"
   d="m 283.757,88.202 h -54.326 c -3.622,0 -6.036,2.414 -6.036,6.036 v 29.577 c -1.811,0.604 -3.018,1.207 -4.829,1.811 -13.28,-9.658 -36.217,-20.523 -73.038,-24.749 -1.811,0 -3.622,0.604 -4.829,1.207 -1.207,1.207 -1.811,3.018 -1.811,4.225 v 21.127 c -9.658,0 -28.37,0.604 -49.497,3.622 -6.64,-6.036 -15.694,-9.054 -25.352,-9.054 -17.505,0 -32.596,11.469 -37.425,27.767 -10.865,5.433 -19.316,12.676 -25.352,19.919 -1.207,1.811 -1.811,4.225 -0.604,6.64 1.207,1.811 3.018,3.622 5.433,3.622 h 23.541 c 6.64,12.676 19.919,21.127 34.407,21.127 15.091,0 28.37,-8.451 34.407,-21.127 h 101.409 c 6.64,12.676 19.92,21.127 34.406,21.127 14.486,0 28.37,-8.451 34.406,-21.127 h 14.487 c 3.622,0 6.036,-2.414 6.036,-6.036 V 94.238 c 0.603,-3.621 -1.811,-6.036 -5.433,-6.036 z M 25.407,167.88 h -4.829 c 1.207,-1.207 3.018,-1.811 4.225,-3.018 0,0 0,0 0,0.604 0,0.604 0,0.604 0,1.207 0.604,0 0.604,0.604 0.604,1.207 z m 38.631,20.523 c -12.072,0 -22.334,-7.847 -25.956,-19.316 0,-1.207 -0.604,-1.811 -0.604,-3.018 -0.604,-1.811 -0.604,-3.622 -0.604,-5.433 0,-1.811 0,-3.018 0.604,-4.829 0,-0.604 0,-0.604 0,-1.207 3.018,-12.072 13.28,-21.127 26.559,-21.127 7.244,0 14.487,3.018 19.316,7.847 1.207,1.207 2.414,2.414 3.018,3.622 0.604,0.604 1.207,1.811 1.811,3.018 0.604,0.604 0.604,1.207 1.207,2.414 0.604,1.207 0.604,2.414 1.207,3.622 0,0.604 0.604,1.207 0.604,1.207 0.604,1.811 0.604,3.622 0.604,5.433 v 0 c 0,1.811 0,3.622 -0.604,5.433 0,1.207 -0.604,1.811 -0.604,2.414 -4.224,12.073 -14.485,19.92 -26.558,19.92 z M 196.232,167.88 H 102.67 v -0.604 c 0,-1.811 0.604,-3.622 0.604,-5.433 0,-1.811 0,-3.018 0,-4.829 0,-0.604 0,-0.604 0,-1.207 0,-1.207 -0.604,-1.811 -0.604,-3.018 0,-0.604 0,-1.207 -0.604,-1.811 0,-1.207 -0.604,-1.811 -0.604,-2.414 0,-0.603 -0.604,-1.207 -0.604,-1.811 -0.604,-1.207 -1.207,-2.414 -1.811,-3.622 0,0 0,0 0,-0.604 25.352,-3.018 45.875,-2.414 46.479,-2.414 1.811,0 3.018,-0.604 4.225,-1.811 1.207,-1.207 1.811,-2.414 1.811,-4.225 v -19.919 c 27.163,3.622 45.272,12.072 56.74,19.316 v 0 c -0.604,0.604 -1.811,1.811 -2.414,2.414 0,0 0,0 -0.604,0.604 -0.604,1.207 -1.811,1.811 -2.414,3.018 v 0 c -4.225,6.64 -7.243,13.883 -7.243,22.334 10e-4,1.207 10e-4,3.622 0.605,6.036 0,-0.603 0,-0.603 0,0 z m 38.631,20.523 c -12.072,0 -22.334,-7.847 -25.956,-18.712 -0.604,-1.207 -0.604,-2.414 -1.207,-3.018 0,-1.207 -0.604,-2.414 -0.604,-4.225 0,-0.604 0,-0.604 0,-1.207 v 0 c 0,-1.811 0,-3.018 0.604,-4.829 0,-0.604 0,-1.207 0,-1.207 0.604,-1.207 0.604,-2.414 1.207,-4.225 0,-0.604 0.604,-0.604 0.604,-1.207 0.604,-1.207 1.207,-1.811 1.811,-3.018 0.604,-0.604 0.604,-1.207 1.207,-1.207 0.604,-1.207 1.811,-1.811 2.414,-3.018 0.604,-0.604 0.604,-0.604 1.207,-1.207 0.604,-0.604 1.811,-1.811 3.018,-2.414 0.604,-0.604 0.604,-0.604 1.207,-1.207 4.225,-2.414 9.054,-4.225 14.487,-4.225 v 0 c 15.091,0 27.163,12.072 27.163,27.163 0,1.811 0,3.622 -0.604,5.433 0,1.207 -0.604,1.811 -0.604,2.414 -3.619,12.069 -13.881,19.916 -25.954,19.916 z m 42.858,-20.523 h -4.225 v -0.604 c 0,-1.811 0.604,-3.622 0.604,-5.433 v 0 0 0 -0.604 c 0,-1.207 0,-2.414 0,-3.622 0,-0.604 0,-1.207 0,-1.811 0,-0.604 0,-1.207 -0.604,-2.414 0,-0.604 0,-1.207 -0.604,-1.811 0,-0.604 -0.604,-1.207 -0.604,-1.811 0,-0.604 -0.604,-1.207 -0.604,-1.811 0,-0.604 -0.604,-1.207 -0.604,-1.811 0,-0.604 -0.604,-1.207 -0.604,-1.811 0,-0.604 -0.604,-1.207 -0.604,-1.811 0,-0.604 -0.604,-1.207 -1.207,-1.811 -0.604,-0.604 -0.604,-1.207 -1.207,-1.811 -0.604,-0.604 -0.604,-1.207 -1.207,-1.207 -0.604,-0.604 -0.604,-1.207 -1.207,-1.811 -0.604,-0.604 -0.604,-0.604 -1.207,-1.207 -0.604,-0.604 -0.604,-1.207 -1.207,-1.207 -0.604,-0.604 -0.604,-0.604 -1.207,-1.207 -0.604,-0.604 -1.207,-0.604 -1.207,-1.207 -0.604,-0.604 -1.207,-0.604 -1.207,-1.207 -0.604,-0.604 -1.207,-0.604 -1.811,-1.207 -0.604,-0.604 -1.207,-0.604 -1.811,-1.207 -0.604,-0.604 -1.207,-0.604 -1.811,-1.207 -0.604,-0.604 -1.207,-0.604 -1.811,-0.604 -0.604,0 -1.207,-0.604 -1.811,-0.604 -0.604,0 -1.207,-0.604 -1.811,-0.604 -0.604,0 -1.207,-0.604 -1.811,-0.604 -0.604,0 -1.207,-0.604 -1.811,-0.604 -0.604,0 -1.207,-0.604 -1.811,-0.604 -0.604,0 -1.207,0 -1.811,-0.604 -0.604,0 -1.207,0 -1.811,0 -0.604,0 -1.207,0 -1.811,0 -0.604,0 -1.207,0 -1.207,0 V 99.671 h 42.254 v 68.21 h -0.603 z"
   inkscape:connector-curvature="0" />

</g>
      <g
         id="g5732">
</g>
      <g
         id="g5734">
</g>
      <g
         id="g5736">
</g>
      <g
         id="g5738">
</g>
      <g
         id="g5740">
</g>
      <g
         id="g5742">
</g>
      <g
         id="g5744">
</g>
      <g
         id="g5746">
</g>
      <g
         id="g5748">
</g>
      <g
         id="g5750">
</g>
      <g
         id="g5752">
</g>
      <g
         id="g5754">
</g>
      <g
         id="g5756">
</g>
      <g
         id="g5758">
</g>
      <g
         id="g5760">
</g>
    </g>
    <path
       style="fill:#ff6600;fill-opacity:1;stroke-width:2.85714293"
       d="m 284.35735,252.6558 c -0.14239,-19.47542 -1.77419,-33.54661 -4.87346,-42.02455 -2.56267,-7.01007 -4.20931,-13.19567 -3.65921,-13.74577 2.69656,-2.69656 42.11602,-6.57525 83.90199,-8.25557 42.67366,-1.71602 46.93052,-2.36824 50.71429,-7.77033 3.10236,-4.42924 4.13047,-15.40213 4.13047,-44.08391 V 98.58884 l 12.14286,2.02542 c 34.67738,5.78414 103.68359,35.67246 127.38949,55.17558 l 9.53233,7.84237 -8.66022,14.15802 c -13.31887,21.77415 -20.93712,47.99938 -22.57989,77.72946 l -1.46033,26.42857 -123.18212,-0.007 -123.18212,-0.007 z"
       id="path5788"
       inkscape:connector-curvature="0"
       transform="scale(0.26458333)" />
    <path
       style="fill:#ff6600;fill-opacity:1;stroke-width:2.85714293"
       d="M 643.14258 47.662109 L 643.14258 84.449219 L 643.14258 121.23438 L 651.98242 123.00195 C 672.57809 127.12109 697.09456 141.92358 710.42578 158.28906 C 727.53638 179.29411 732.90584 190.2299 740.40039 219.33789 C 745.16068 237.82629 746.18664 247.82884 744.8457 262.66211 C 743.22008 280.64456 743.49116 281.94922 748.83789 281.94922 C 754.48553 281.94922 754.57227 280.17862 754.57227 164.80469 L 754.57227 47.662109 L 698.85742 47.662109 L 643.14258 47.662109 z "
       transform="scale(0.26458333)"
       id="path5790" />
    <path
       style="fill:#ff6600;fill-opacity:1;stroke-width:0.35714287"
       d="m 63.571817,281.23884 c 0.676926,-0.70952 2.355774,-2.17966 3.730774,-3.26699 1.375,-1.08734 3.263393,-2.71061 4.196429,-3.60727 l 1.696428,-1.6303 v 2.93301 c 0,2.39018 0.100784,2.933 0.544554,2.933 0.639836,0 1.241161,1.39551 1.241161,2.88039 v 1.04818 h -6.32006 -6.32006 z"
       id="path5794"
       inkscape:connector-curvature="0"
       transform="scale(0.26458333)" />
    <path
       style="fill:#ff6600;fill-opacity:1;stroke-width:0.35714287"
       d=""
       id="path5796"
       inkscape:connector-curvature="0"
       transform="scale(0.26458333)" />
    <path
       style="fill:#ff6600;fill-opacity:1;stroke-width:2.02030516"
       d="m 285.21016,252.66301 c -0.89098,-18.32678 -2.80999,-34.06686 -5.15172,-42.25545 l -3.73182,-13.04952 4.35419,-1.08335 c 7.36401,-1.83223 46.9506,-5.16637 85.61501,-7.21084 37.30292,-1.97248 43.2398,-3.2162 46.15598,-9.66926 0.8927,-1.97542 1.99465,-20.68082 2.44877,-41.56756 l 0.82568,-37.975904 9.40567,1.339624 c 28.03084,3.99236 101.33226,35.09296 126.01735,53.46712 l 11.55583,8.60148 -5.15691,8.2921 c -15.82629,25.44796 -23.9906,52.94132 -26.22983,88.32892 L 529.927,281.86895 H 408.27852 286.63006 Z"
       id="path5800"
       inkscape:connector-curvature="0"
       transform="scale(0.26458333)" />
    <path
       style="fill:#ff6600;fill-opacity:1;stroke-width:0.35714287"
       d="m 536.7975,224.66372 c -0.0516,-1.22164 2.75356,-11.50694 4.78924,-17.56005 3.99944,-11.89239 8.04649,-20.23693 16.65777,-34.34637 2.91774,-4.78067 5.2985,-8.87889 5.29058,-9.10714 -0.008,-0.22826 -1.31041,-1.45965 -2.89441,-2.73644 -1.58401,-1.27678 -4.43021,-3.582 -6.32489,-5.12271 -12.10359,-9.84235 -34.79045,-22.15775 -63.30202,-34.36306 -12.78961,-5.47502 -28.63467,-11.37116 -39.63676,-14.74935 -11.80007,-3.6232 -18.0602,-5.12184 -29.19787,-6.989809 -3.99476,-0.669987 -7.34379,-1.298742 -7.44228,-1.397232 -0.0985,-0.09849 -0.12469,-0.413547 -0.0582,-0.700126 0.22592,-0.974024 25.06564,4.385817 39.228,8.464507 32.93587,9.48536 61.48419,22.36118 88.21429,39.78627 10.94127,7.13252 24.47065,17.28872 24.14864,18.12786 -0.1,0.26059 -1.8571,2.61256 -3.90467,5.22658 -2.04757,2.61404 -4.00333,5.31529 -4.34614,6.00279 -0.3428,0.6875 -1.51384,2.4436 -2.60231,3.90244 -4.78634,6.41503 -13.69498,28.05759 -17.72537,43.06184 -0.47487,1.76786 -0.87698,2.89286 -0.89358,2.5 z"
       id="path5802"
       inkscape:connector-curvature="0"
       transform="scale(0.26458333)" />
    <path
       style="fill:#ff6600;fill-opacity:1;stroke-width:0.35714287"
       d="m 283.22306,278.86015 c 0.0169,-1.91518 0.23776,-4.92857 0.49083,-6.69643 l 0.46013,-3.21428 0.0449,6.51785 0.0449,6.51786 H 407.62039 530.977 l 0.21385,-2.41071 c 0.11762,-1.3259 0.46118,-7.3125 0.76347,-13.30357 0.30229,-5.99108 0.59272,-11.29465 0.64541,-11.78572 0.0527,-0.49107 0.12249,3.20536 0.15514,8.21429 0.0526,8.06971 0.68154,16.86351 1.36017,19.01785 0.18725,0.59443 -5.94525,0.625 -125.3629,0.625 H 283.19235 Z"
       id="path5804"
       inkscape:connector-curvature="0"
       transform="scale(0.26458333)" />
    <path
       style="fill:#ff6600;fill-opacity:1;stroke-width:0.35714287"
       d="m 531.16926,281.18158 c 0.10845,-0.44196 0.39835,-4.77664 0.6442,-9.6326 0.24586,-4.85597 0.50751,-8.76854 0.58145,-8.69461 0.0739,0.0739 0.28473,3.31241 0.46844,7.1966 0.18371,3.88419 0.48998,8.03059 0.68059,9.21422 0.38539,2.39304 0.2071,2.70507 -1.55102,2.71449 -0.87999,0.005 -0.99365,-0.10541 -0.82366,-0.7981 z"
       id="path5808"
       inkscape:connector-curvature="0"
       transform="scale(0.26458333)" />
    <path
       style="fill:#ff6600;fill-opacity:1;stroke-width:0.35714287"
       d="m 283.3154,280.19149 c 0.12875,-1.23183 0.25274,-3.30094 0.27553,-4.59801 0.0536,-3.05385 0.21774,-2.22987 0.50831,2.55239 l 0.23328,3.83928 1.30492,-0.0572 1.30491,-0.0572 -1.16071,-0.14405 -1.16072,-0.14404 -0.008,-14.1738 c -0.014,-24.34832 -0.82875,-38.32775 -2.83789,-48.69154 -0.40554,-2.0919 -1.78194,-6.95528 -3.05868,-10.80752 -1.27674,-3.85223 -2.41953,-7.94344 -2.53954,-9.09157 l -0.21818,-2.0875 2.81336,-0.75377 c 9.37956,-2.513 41.29432,-5.38768 77.99193,-7.02503 44.05877,-1.96578 48.56365,-2.53255 52.54662,-6.6111 1.90233,-1.94797 2.87178,-4.22209 3.6766,-8.62452 1.14335,-6.25422 1.36927,-12.71068 1.53302,-43.81086 l 0.16421,-31.186764 1.4862,0.240182 c 7.00852,1.132632 16.1956,2.869872 19.87907,3.759052 22.42298,5.41286 52.04041,16.75136 80.17857,30.6949 13.67044,6.77423 21.03221,10.88657 29.10714,16.25946 5.23349,3.48226 17.85714,13.43535 17.85714,14.07942 0,0.16435 -2.57907,4.53476 -5.73127,9.71204 -8.27347,13.58861 -12.72426,22.92869 -16.64163,34.92282 -5.26261,16.113 -7.65249,30.32229 -8.86461,52.70564 -0.29784,5.5 -0.63474,11.10133 -0.74867,12.44739 -0.12842,1.51717 -0.0775,2.36727 0.13395,2.23659 0.1876,-0.11595 0.45885,-3.11364 0.60277,-6.66153 0.14392,-3.54789 0.33903,-6.37336 0.43357,-6.27882 0.0945,0.0945 0.32285,3.27465 0.50737,7.06691 0.18451,3.79226 0.48298,7.93655 0.66326,9.20955 0.36206,2.55663 0.20057,2.85784 -1.53733,2.8673 -0.98612,0.005 -1.00074,-0.0248 -0.8197,-1.69096 l 0.18434,-1.69643 -0.38746,1.49747 c -0.21311,0.82361 -0.64782,1.60989 -0.96603,1.74729 -0.31821,0.1374 -56.00979,0.32729 -123.75908,0.42197 l -123.18052,0.17216 z"
       id="path5810"
       inkscape:connector-curvature="0"
       transform="scale(0.26458333)" />
    <path
       style="fill:#ff6600;fill-opacity:1;stroke-width:0.35714287"
       d="m 283.31476,279.65428 c 0.12911,-1.52729 0.25736,-3.5964 0.28502,-4.59801 l 0.0503,-1.82112 0.27153,1.96429 c 0.14935,1.08035 0.28744,3.0491 0.30686,4.375 0.0332,2.26443 0.0841,2.4082 0.83889,2.36928 0.60471,-0.0312 0.6489,-0.0818 0.17857,-0.20476 -0.58075,-0.15176 -0.62547,-1.09068 -0.63175,-13.26214 -0.0115,-22.27036 -0.7373,-36.91478 -2.31672,-46.74392 -0.7459,-4.64195 -1.25534,-6.56836 -3.8056,-14.39061 -1.18475,-3.63392 -2.2402,-7.51933 -2.34543,-8.63424 l -0.19133,-2.02709 1.38649,-0.35958 c 0.76257,-0.19776 2.02934,-0.52493 2.81506,-0.72702 2.55169,-0.65633 13.71425,-2.13354 23.03571,-3.04845 16.48939,-1.61844 32.42119,-2.67356 56.96429,-3.77256 41.92707,-1.87742 46.23489,-2.51016 49.90642,-7.33026 3.6966,-4.85301 4.1908,-10.61203 4.45107,-51.86865 0.10688,-16.94197 0.29517,-30.803009 0.41842,-30.802318 0.82802,0.0046 15.49831,2.659638 18.85156,3.411708 22.30216,5.00197 54.63754,17.29423 83.69396,31.81619 20.33132,10.16128 28.96374,15.58081 41.875,26.28962 2.11161,1.7514 3.83928,3.32352 3.83928,3.4936 0,0.17009 -1.79516,3.25027 -3.98924,6.84486 -5.78376,9.47559 -7.19935,11.97169 -10.28911,18.14277 -7.97152,15.92123 -13.27157,34.40412 -15.51546,54.10714 -0.92156,8.0919 -2.21435,28.39873 -1.92126,30.17857 0.0809,0.49107 0.28862,-1.67857 0.46169,-4.82143 0.32271,-5.86046 0.77188,-6.24677 0.85399,-0.73448 0.0232,1.56031 0.21973,5.01567 0.43666,7.67857 0.21692,2.66289 0.41781,5.24341 0.44643,5.73448 0.0457,0.78515 -0.10955,0.90623 -1.28727,1.00371 -1.18369,0.098 -1.3441,0.015 -1.38071,-0.71429 -0.0278,-0.55435 -0.0931,-0.63001 -0.19891,-0.23054 -0.0866,0.32703 -0.42957,0.71152 -0.76214,0.85443 -0.33257,0.14291 -56.03619,0.33731 -123.78583,0.432 l -123.18116,0.17215 z m 247.9787,-0.23609 c -0.114,-0.28491 -0.19863,-0.20028 -0.21577,0.21577 -0.0155,0.37649 0.0689,0.58743 0.18758,0.46875 0.11868,-0.11867 0.13136,-0.42671 0.0282,-0.68452 z m -0.007,-4.66518 c -0.0991,-0.24554 -0.18014,-0.0446 -0.18014,0.44643 0,0.49107 0.0811,0.69196 0.18014,0.44643 0.0991,-0.24554 0.0991,-0.64733 0,-0.89286 z"
       id="path5812"
       inkscape:connector-curvature="0"
       transform="scale(0.26458333)" />
    <path
       style="fill:#ff6600;fill-opacity:1;stroke-width:0.35714287"
       d="m 283.31245,279.44001 c 0.12802,-1.64482 0.25384,-3.71379 0.27961,-4.59772 l 0.0468,-1.60714 0.28597,1.60714 c 0.15728,0.88393 0.29788,2.85268 0.31244,4.375 0.023,2.39918 0.10972,2.7641 0.65147,2.73967 0.37337,-0.0169 0.44527,-0.10072 0.17857,-0.20834 -0.34427,-0.13891 -0.44866,-2.89078 -0.45619,-12.02537 -0.0112,-13.62042 -0.505,-30.97057 -1.05881,-37.20502 -0.93506,-10.52626 -1.95337,-15.61536 -5.00189,-24.99736 -1.21269,-3.73215 -2.29286,-7.69913 -2.40038,-8.81552 l -0.19548,-2.0298 1.92245,-0.55027 c 9.2939,-2.6602 40.58471,-5.46871 81.92245,-7.35296 31.26849,-1.42527 38.18654,-1.96728 43.91273,-3.44044 2.72181,-0.70023 3.81419,-1.27603 5.36735,-2.8292 2.44825,-2.44825 3.67817,-6.07843 4.45243,-13.14156 0.60723,-5.53942 1.07633,-27.1068 1.08289,-49.78668 0.005,-16.7593 0.0957,-20.803575 0.46732,-20.803575 0.78677,0 14.53165,2.466695 18.11013,3.250095 22.19518,4.85896 55.13745,17.36142 84.82143,32.19198 12.7606,6.37539 19.99639,10.48506 28.21429,16.02471 4.60393,3.10349 16.05691,12.14347 16.69759,13.17962 0.24871,0.40222 -1.09016,2.89802 -5.26872,9.82142 -3.08118,5.1052 -6.93644,11.9644 -8.56724,15.24267 -8.92382,17.93892 -14.26116,37.70233 -16.23365,60.11093 -0.52929,6.01298 -1.45696,21.49872 -1.39065,23.21429 0.0304,0.78571 0.23815,-0.98214 0.46174,-3.92857 0.52369,-6.90121 0.7685,-5.09512 1.74278,12.85714 0.0539,0.99259 -0.0404,1.07959 -1.28114,1.18228 -1.08004,0.0894 -1.33928,-0.0103 -1.33928,-0.51469 0,-0.56995 -0.0442,-0.56513 -0.4971,0.0543 -0.48667,0.66556 -3.08586,0.6829 -123.98491,0.82669 l -123.48781,0.14687 z"
       id="path5814"
       inkscape:connector-curvature="0"
       transform="scale(0.26458333)" />
    <path
       style="fill:#ff6600;fill-opacity:1;stroke-width:0.35714287"
       d="m 281.85307,224.85916 c -0.24554,-0.39681 -0.4466,-1.08525 -0.44681,-1.52988 -4.2e-4,-0.89433 -1.36965,-6.82637 -2.53601,-10.98699 -0.41299,-1.47321 -1.87087,-5.6099 -3.23973,-9.19264 -1.36886,-3.58275 -2.43726,-6.87599 -2.37422,-7.31832 0.10946,-0.76802 0.48458,-0.85626 8.32891,-1.95914 32.45999,-4.56377 70.86864,-7.32161 100.17857,-7.1931 5.79465,0.0254 10.21429,0.10213 9.82143,0.1705 -0.95415,0.16605 -19.24045,1.2186 -24.64286,1.41843 -42.70746,1.57971 -81.62912,4.95113 -89.64285,7.76493 l -1.42858,0.5016 0.0519,1.92173 c 0.0311,1.15053 0.65112,3.78493 1.54503,6.56459 3.07405,9.55878 3.62539,11.52796 4.33083,15.46816 0.78458,4.38223 0.7994,5.57415 0.0544,4.37013 z"
       id="path5816"
       inkscape:connector-curvature="0"
       transform="scale(0.26458333)" />
    <path
       style="fill:#ff6600;fill-opacity:1;stroke-width:0.35714287"
       d="m 283.19235,281.18209 c 0,-0.67654 0.11249,-2.74136 0.24997,-4.5885 0.21666,-2.91087 0.28531,-3.16806 0.51514,-1.92987 0.14584,0.78572 0.27442,2.66462 0.28574,4.17535 0.0113,1.51073 0.14112,2.82145 0.28844,2.91271 0.36181,0.22414 -0.12176,-33.4828 -0.61008,-42.52423 -0.67082,-12.4206 -1.80896,-20.18537 -3.97187,-27.09738 -3.25562,-10.40399 -3.90497,-12.35582 -3.73155,-11.21645 0.10464,0.6875 1.00406,3.82143 1.9987,6.96429 2.21326,6.99336 3.46262,12.04441 3.6974,14.94821 0.17584,2.17474 0.174,2.18007 -0.20295,0.5875 -2.27164,-9.59755 -3.2192,-12.89466 -5.505,-19.15506 -1.46123,-4.00208 -2.65679,-7.60123 -2.65679,-7.99813 0,-1.01569 0.71051,-1.2072 8.39285,-2.26227 34.02262,-4.67255 68.38143,-7.1384 97.32143,-6.98452 14.04554,0.0747 18.9318,-0.24841 24.11203,-1.59432 1.99724,-0.51893 4.45429,-2.51634 6.12738,-4.98116 0.55582,-0.81885 1.21149,-1.70119 1.45702,-1.96076 0.24554,-0.25957 0.44643,-0.6097 0.44643,-0.77806 0,-0.16837 0.23854,-0.54466 0.53009,-0.83621 0.74634,-0.74635 1.53431,-6.1281 1.96921,-13.44951 0.20419,-3.4375 0.47428,-19.38839 0.60021,-35.44643 0.16327,-20.82127 0.34141,-29.196425 0.62102,-29.196425 0.89877,0 15.33312,2.601615 18.95804,3.416955 23.79602,5.35233 59.17828,19.14701 90,35.08879 15.23391,7.87937 23.92287,13.52883 35.08929,22.81467 2.20982,1.83766 4.01785,3.48241 4.01785,3.65501 0,0.1726 -2.41497,4.34815 -5.3666,9.279 -8.78208,14.6709 -12.59959,22.59406 -16.55042,34.35005 -4.57555,13.61491 -7.35989,27.84143 -8.59099,43.89553 -0.54697,7.13283 -1.01695,17.77476 -0.59935,13.57142 l 0.23063,-2.32142 0.24371,1.60714 c 0.19882,1.31107 0.94303,12.30996 1.1237,16.60714 0.0416,0.98983 -0.057,1.07987 -1.29425,1.18228 -0.85523,0.0708 -1.33928,-0.0418 -1.33928,-0.31159 0,-0.29785 -0.17419,-0.27787 -0.59058,0.0677 -0.49741,0.41282 -20.0483,0.50975 -123.92857,0.61437 l -123.338,0.12421 z m 248.46634,-11.78622 c -0.0851,-0.44197 -0.15478,-0.0804 -0.15478,0.80357 0,0.88393 0.0697,1.24553 0.15478,0.80357 0.0851,-0.44197 0.0851,-1.16518 0,-1.60714 z M 275.92888,197.96729 c -0.0991,-0.24553 -0.18014,-0.0446 -0.18014,0.44643 0,0.49107 0.0811,0.69197 0.18014,0.44643 0.0991,-0.24553 0.0991,-0.64732 0,-0.89286 z m 7.94909,-3.09636 c 4.29208,-0.72409 15.06838,-2.00467 25.74295,-3.0591 4.70485,-0.46474 4.83554,-0.49508 1.42858,-0.33162 -6.95448,0.33367 -21.85427,2.00961 -28.57143,3.21373 -3.3801,0.60593 -6.78572,1.58151 -6.78572,1.94386 0,0.13007 0.84375,-0.0459 1.875,-0.39104 1.03125,-0.34514 3.87103,-0.96427 6.31062,-1.37583 z m 39.8501,-4.14111 5.35714,-0.47827 -4.28571,0.18355 c -5.391,0.23089 -10.79878,0.72755 -8.21429,0.75442 0.98214,0.0102 4.19643,-0.19665 7.14286,-0.4597 z m 13.92857,-0.8706 c 3.45561,-0.24801 3.48457,-0.257 0.89286,-0.27738 -1.47322,-0.0116 -4.125,0.0972 -5.89286,0.24169 -2.92252,0.23889 -3.00357,0.26407 -0.89286,0.27737 1.27679,0.008 3.92857,-0.10071 5.89286,-0.24168 z m 8.85006,-0.63504 c -0.82889,-0.0749 -2.27532,-0.0758 -3.21429,-0.002 -0.93896,0.0738 -0.26077,0.1351 1.50709,0.13619 1.76785,0.001 2.5361,-0.0593 1.7072,-0.13421 z m 7.13208,-0.35947 c -1.03125,-0.0721 -2.71875,-0.0721 -3.75,0 -1.03125,0.0721 -0.1875,0.13117 1.875,0.13117 2.0625,0 2.90625,-0.059 1.875,-0.13117 z m 7.5,-0.35714 c -1.03125,-0.0721 -2.71875,-0.0721 -3.75,0 -1.03125,0.0721 -0.1875,0.13117 1.875,0.13117 2.0625,0 2.90625,-0.059 1.875,-0.13117 z m 8.03572,-0.35636 c -0.93304,-0.0736 -2.45982,-0.0736 -3.39286,0 -0.93304,0.0736 -0.16964,0.13376 1.69643,0.13376 1.86607,0 2.62946,-0.0602 1.69643,-0.13376 z m 7.68934,-0.35561 c -0.82889,-0.0749 -2.27532,-0.0758 -3.21428,-0.002 -0.93896,0.0738 -0.26078,0.1351 1.50708,0.13618 1.76786,0.001 2.5361,-0.0593 1.7072,-0.1342 z m 6.42857,-0.35714 c -0.82889,-0.0749 -2.27532,-0.0758 -3.21428,-0.002 -0.93896,0.0738 -0.26078,0.1351 1.50708,0.13618 1.76786,0.001 2.5361,-0.0593 1.7072,-0.1342 z"
       id="path5818"
       inkscape:connector-curvature="0"
       transform="scale(0.26458333)" />
    <path
       style="fill:#808080;fill-opacity:1;stroke-width:2.02030516"
       d="m 623.07792,350.27461 c -18.9775,-5.35293 -36.04793,-21.13697 -46.33079,-42.83937 -19.87599,-41.94915 -15.23681,-81.66549 13.70417,-117.32242 24.73761,-30.47814 61.10581,-33.53986 89.28108,-7.51628 19.70037,18.19589 30.13692,44.26198 30.19801,75.42184 0.0739,37.70314 -19.79697,75.50127 -46.43716,88.33215 -11.58311,5.57885 -28.66781,7.23767 -40.41531,3.92408 z"
       id="path5824"
       inkscape:connector-curvature="0"
       transform="scale(0.26458333)" />
    <path
       style="fill:#1a1a1a;fill-opacity:1;stroke-width:2.02030516"
       d="m 163.1125,350.1049 c -24.8318,-8.12062 -44.25409,-30.92263 -52.23416,-61.32354 -3.68684,-14.04538 -4.10848,-44.57254 -0.80489,-58.27427 6.1358,-25.44839 23.25131,-49.5239 42.44745,-59.70865 7.328,-3.88796 12.0017,-4.74041 26.09911,-4.76031 15.22603,-0.0215 18.3804,0.64492 27.82783,5.87915 12.24052,6.7817 26.52535,21.22984 32.42667,32.79738 5.88007,11.52588 14.5026,42.60482 14.46171,52.12561 -0.15263,35.54329 -22.13796,75.61807 -48.94972,89.22542 -11.89424,6.0365 -29.80632,7.78943 -41.274,4.03921 z"
       id="path5826"
       inkscape:connector-curvature="0"
       transform="scale(0.26458333)" />
    <path
       style="fill:#666666;fill-opacity:1;stroke-width:1.42857146"
       d="m 621.24559,348.78237 c -24.43644,-7.85225 -45.19341,-33.97912 -52.9688,-66.67202 -2.04094,-8.58144 -3.88707,-37.79494 -2.38834,-37.79347 0.58929,5.7e-4 1.07143,-1.49993 1.07143,-3.33445 0,-4.91155 5.3667,-20.5188 10.15128,-29.52165 10.38238,-19.53583 24.96341,-34.51478 40.62812,-41.73686 5.80088,-2.67445 9.53171,-3.26314 20.68022,-3.26314 12.57266,0 14.3572,0.36854 23.57143,4.86795 12.27597,5.99449 27.9577,21.31872 34.48974,33.70348 14.33295,27.17532 16.63361,60.23817 6.28854,90.37316 -14.39253,41.92518 -48.22523,64.07688 -81.52362,53.377 z"
       id="path5847"
       inkscape:connector-curvature="0"
       transform="scale(0.26458333)" />
    <path
       style="fill:#666666;fill-opacity:1;stroke-width:1.42857146"
       d="m 161.55154,348.8574 c -21.88013,-7.84233 -39.46328,-28.01762 -48.56976,-55.72997 -3.22427,-9.81192 -3.61361,-13.40679 -3.73903,-34.52379 -0.12306,-20.71741 0.24713,-24.78223 3.05744,-33.57143 7.30498,-22.84624 25.01014,-45.76678 41.7259,-54.017 7.09634,-3.50248 9.24315,-3.84014 24.41468,-3.84014 15.77193,0 17.09727,0.2314 25.56777,4.46416 5.50987,2.75332 12.91692,8.39613 19.32744,14.72397 12.70492,12.54106 18.71547,24.19229 25.11836,48.691 3.78585,14.48544 4.35191,18.77012 3.67735,27.83515 -1.14052,15.32695 -4.19055,25.84487 -12.2536,42.25615 -9.40371,19.14001 -21.76668,32.74944 -36.25439,39.90965 -13.31023,6.57827 -30.09487,8.09517 -42.07216,3.80225 z"
       id="path5849"
       inkscape:connector-curvature="0"
       transform="scale(0.26458333)" />
    <path
       style="fill:#333333;fill-opacity:1;stroke-width:1.42857146"
       d="m 624.10274,349.25848 c -18.77134,-5.23231 -35.96647,-21.05141 -46.52051,-42.7977 -7.31101,-15.06411 -10.17127,-26.32051 -11.43457,-45 -1.18209,-17.47875 1.34279,-28.62282 10.96281,-48.38656 6.11358,-12.55999 8.98861,-16.58876 18.88748,-26.46697 15.76674,-15.73383 21.78324,-18.57888 40.61408,-19.20534 13.87302,-0.46153 15.15014,-0.25441 24.01729,3.89503 9.94462,4.65365 24.9809,17.82234 32.07779,28.09354 5.36643,7.76673 10.68657,21.18778 13.6129,34.3411 2.94154,13.22167 2.22076,41.0574 -1.40239,54.15777 -12.06166,43.6119 -47.62741,70.6198 -80.81488,61.36913 z"
       id="path5851"
       inkscape:connector-curvature="0"
       transform="scale(0.26458333)" />
    <path
       style="fill:#333333;fill-opacity:1;stroke-width:1.42857146"
       d="m 175.53131,349.93408 c -7.46429,-0.44684 -15.01786,-1.59446 -16.78572,-2.55027 -1.76785,-0.95581 -3.22413,-1.23307 -3.23616,-0.61614 -0.012,0.61693 -0.49417,0.4364 -1.07143,-0.40117 -0.57725,-0.83758 -4.01973,-3.54322 -7.64995,-6.01256 -8.54596,-5.8131 -18.54484,-16.99557 -24.33147,-27.21164 -2.52656,-4.46055 -4.95763,-8.43152 -5.40237,-8.82438 -0.44474,-0.39285 -0.95526,-1.67857 -1.13449,-2.85714 -0.17923,-1.17857 -1.64948,-6.96428 -3.26722,-12.85714 -2.3067,-8.40247 -2.94933,-15.03095 -2.97836,-30.7202 -0.0203,-11.00325 0.26659,-20.96754 0.63766,-22.14286 1.19344,-3.78008 3.94412,-14.92646 4.22903,-17.13694 0.15191,-1.17857 0.61881,-2.46429 1.03757,-2.85714 0.41875,-0.39286 3.5811,-5.53572 7.02742,-11.42858 6.08315,-10.40153 25.65518,-31.61133 30.09613,-32.61454 1.14842,-0.25942 2.41555,-0.90228 2.81584,-1.42857 0.40029,-0.52629 3.29923,-1.18316 6.44209,-1.45971 3.14286,-0.27655 6.32219,-0.87436 7.06518,-1.32845 1.57901,-0.96506 18.64413,-0.90066 20.34747,0.0768 0.63733,0.36573 3.52828,1.09221 6.42434,1.61442 12.32359,2.22214 33.9017,21.5714 41.93869,37.60676 2.27356,4.53618 4.60015,8.44985 5.17021,8.69704 0.57005,0.24719 0.68237,1.37219 0.24959,2.5 -0.43278,1.12781 -0.0373,2.05056 0.87885,2.05056 0.91614,0 1.35742,0.49884 0.98061,1.10854 -0.57634,0.93253 3.26209,17.46614 5.71245,24.60575 1.19152,3.47178 1.33095,25.71533 0.16118,25.71478 -0.58928,-2.7e-4 -1.07143,1.58814 -1.07143,3.5298 0,5.11659 -7.62001,25.20812 -13.65007,35.99089 -7.60785,13.6041 -21.92489,28.15601 -32.81512,33.35344 -4.91881,2.34753 -9.92281,4.26823 -11.12,4.26823 -1.19719,0 -2.391,0.48214 -2.6529,1.07143 -0.26191,0.58928 -6.58334,0.70584 -14.04762,0.25901 z"
       id="path5853"
       inkscape:connector-curvature="0"
       transform="scale(0.26458333)" />
    <path
       style="fill:#333333;fill-opacity:1;stroke-width:1.42857146"
       d="m 621.60791,348.02795 c -14.44679,-4.70815 -32.80619,-21.28793 -41.32544,-37.31965 -8.80039,-16.56078 -12.23081,-29.58786 -12.99127,-49.33466 -0.8117,-21.07745 0.61266,-27.56385 10.64681,-48.48429 5.60366,-11.6832 8.33077,-15.37977 19.60083,-26.56873 15.82494,-15.71104 21.17951,-18.02784 42.15351,-18.23876 15.73237,-0.15822 20.13895,1.5317 35.27765,13.5289 15.24748,12.08341 24.15116,26.44038 29.71624,47.91674 3.01958,11.65295 3.0481,43.45616 0.0504,56.219 -3.93538,16.75511 -12.5863,32.26638 -24.76484,44.40382 -14.45145,14.4027 -23.54838,18.79976 -40.15479,19.40908 -7.64302,0.28042 -14.39085,-0.28709 -18.20911,-1.53145 z"
       id="path5855"
       inkscape:connector-curvature="0"
       transform="scale(0.26458333)" />
  </g>
</svg>
