<?xml version="1.0" encoding="UTF-8" standalone="no"?>
<!-- Generator: Adobe Illustrator 18.0.0, SVG Export Plug-In . SVG Version: 6.00 Build 0)  -->

<svg
   xmlns:dc="http://purl.org/dc/elements/1.1/"
   xmlns:cc="http://creativecommons.org/ns#"
   xmlns:rdf="http://www.w3.org/1999/02/22-rdf-syntax-ns#"
   xmlns:svg="http://www.w3.org/2000/svg"
   xmlns="http://www.w3.org/2000/svg"
   xmlns:sodipodi="http://sodipodi.sourceforge.net/DTD/sodipodi-0.dtd"
   xmlns:inkscape="http://www.inkscape.org/namespaces/inkscape"
   version="1.1"
   id="Capa_1"
   x="0px"
   y="0px"
   viewBox="0 0 374.84 374.84"
   style="enable-background:new 0 0 374.84 374.84;"
   xml:space="preserve"
   sodipodi:docname="f1-car.svg"
   inkscape:version="0.92.3 (2405546, 2018-03-11)"><metadata
   id="metadata39"><rdf:RDF><cc:Work
       rdf:about=""><dc:format>image/svg+xml</dc:format><dc:type
         rdf:resource="http://purl.org/dc/dcmitype/StillImage" /></cc:Work></rdf:RDF></metadata><defs
   id="defs37" /><sodipodi:namedview
   pagecolor="#ffffff"
   bordercolor="#666666"
   borderopacity="1"
   objecttolerance="10"
   gridtolerance="10"
   guidetolerance="10"
   inkscape:pageopacity="0"
   inkscape:pageshadow="2"
   inkscape:window-width="1389"
   inkscape:window-height="845"
   id="namedview35"
   showgrid="false"
   inkscape:zoom="1.2592039"
   inkscape:cx="210.43805"
   inkscape:cy="199.04529"
   inkscape:window-x="51"
   inkscape:window-y="27"
   inkscape:window-maximized="1"
   inkscape:current-layer="Capa_1" />
<path
   id="path2"
   d="m 187.35742,0 c -1.11778,0.00383643 -2.25017,0.11046875 -3.38867,0.32421875 -2.233,0.419 -4.37667,1.29359375 -6.26367,2.55859375 -5.134,3.444 -8.023,8.9568125 -8,14.8828125 v 0.994141 H 124.5625 c -5.508,0 -9.9707,4.463703 -9.9707,9.970703 v 18.384765 c 0,5.508 4.4637,9.972657 9.9707,9.972657 h 45.18164 c 0,0 0.0195,21.54275 0.0195,21.84375 l -16.84375,6.177734 V 73.216797 c 0,-6.144 -4.97906,-11.125 -11.12304,-11.125 h -18.75196 c -6.144,0 -11.125,4.981 -11.125,11.125 v 42.085933 c 0,6.144 4.981,11.12305 11.125,11.12305 h 18.75196 c 6.143,0 11.12304,-4.97905 11.12304,-11.12305 v -4.72461 l 14.82031,7.66016 c -1.326,12.505 -3.30782,24.80756 -5.92382,36.85156 h -4.95703 c -13.475,0 -24.72686,11.02119 -25.00586,24.49219 l -0.0781,3.72852 c -1.5,23.147 0.49091,34.06157 5.37891,53.39257 1.108,4.38401 2.45209,8.75705 3.99609,12.99805 l 17.41016,47.81641 -6.82813,7.93554 v -3.23632 c 0,-6.144 -4.981,-11.125 -11.125,-11.125 h -19.5625 c -6.144,0 -11.125,4.981 -11.125,11.125 v 42.08593 c 0,6.144 4.981,11.12305 11.125,11.12305 h 19.5625 c 6.144,0 11.125,-4.97905 11.125,-11.12305 v -18.91796 l 11.92774,-13.86133 0.625,1.71679 c 2.764,7.59 9.0767,13.20997 16.63672,15.29297 v 9.10547 h -13.75196 c -5.508,0 -9.97265,4.46466 -9.97265,9.97266 v 17.25781 c 0,5.508 4.46565,9.97266 9.97265,9.97266 h 40.50196 c 5.508,0 9.97265,-4.46466 9.97265,-9.97266 v -17.25781 c 0,-5.508 -4.46567,-9.97266 -9.97265,-9.97266 h -13.75 v -9.11133 c 7.532,-2.085 13.8267,-7.68523 16.5957,-15.24023 l 0.65039,-1.77734 11.93945,13.87695 v 18.91797 c 0,6.144 4.981,11.12304 11.125,11.12304 h 19.56446 c 6.14299,0 11.12304,-4.97904 11.12304,-11.12304 v -42.08594 c 0,-6.146 -4.97905,-11.12695 -11.12304,-11.12695 h -19.56446 c -6.144,0 -11.12305,4.981 -11.12304,11.125 v 3.23632 l -6.81836,-7.92382 17.28125,-47.16016 c 1.583,-4.319 2.95693,-8.77328 4.08593,-13.23828 4.963,-19.622 6.97366,-30.72478 5.34766,-54.42578 l -0.0664,-3.12305 c -0.282,-13.506 -11.49981,-24.49219 -25.00781,-24.49219 h -4.91992 c -2.639,-12.05 -4.64886,-24.27042 -6.00586,-36.60742 l 14.91602,-7.83398 v 4.65429 c 0,6.144 4.97904,11.12305 11.12304,11.12305 h 18.75196 c 6.14299,0 11.125,-4.97905 11.125,-11.12305 V 73.216797 c 0,-6.144 -4.981,-11.125 -11.125,-11.125 h -18.75196 c -6.144,0 -11.12305,4.981 -11.12304,11.125 V 85.0625 l -17.04493,-6.355469 c 0,-0.225 0.0879,-21.617187 0.0879,-21.617187 h 45.3125 c 5.508,0 9.97266,-4.465657 9.97266,-9.972656 V 28.730469 c 0,-5.508 -4.46566,-9.970703 -9.97266,-9.970703 h -45.14453 l 0.002,-0.464844 c 0.021,-4.784 -1.66991,-9.4918751 -5.00391,-12.9218751 -3.38,-3.4775 -7.92971,-5.38967141 -12.77344,-5.3730469 z m 0.0625,13 c 1.263,0 2.4498,0.493672 3.3418,1.388672 0.891,0.895 1.379,2.081797 1.375,3.341797 l -0.26367,60.25 c -0.112,28.493001 3.0469,56.721411 9.3789,84.066411 -4.163,-2.099 -8.85907,-3.28711 -13.83007,-3.28711 -4.975,0 -9.67485,1.19096 -13.83985,3.29296 6.206,-26.956 9.2986,-55.18368 9.18359,-84.054683 l -0.0625,-60.265625 c -0.004,-1.262 0.48401,-2.44975 1.375,-3.34375 0.892,-0.895 2.0788,-1.388672 3.3418,-1.388672 z m -59.83008,18.759766 h 42.12891 l 0.0137,12.330078 h -42.14258 z m 77.48438,0 H 247.25 v 12.330078 h -42.22852 z m -80.1543,43.332031 h 15 v 38.333983 h -15 z m 110,0 h 15 v 38.333983 h -15 z m -29.79492,17.582031 13.48438,5.027344 -12.85547,6.753908 c -0.274,-3.919 -0.48391,-7.846252 -0.62891,-11.781252 z m -35.60352,0.19336 c -0.136,3.801 -0.32807,7.587422 -0.58007,11.357422 l -12.61133,-6.519532 z m -12.6621,75.222652 h 1.86523 c -0.051,0.196 -0.90234,3.45899 -0.90234,3.45899 -1.546,5.905 -1.9866,11.97697 -1.3086,18.04297 l 6.40235,57.25586 c 1.397,12.494 11.9309,21.91601 24.5039,21.91601 12.572,0 23.10691,-9.42201 24.50391,-21.91601 l 6.40039,-57.25586 c 0.678,-6.066 0.2384,-12.13697 -1.3086,-18.04297 0,0 -0.85134,-3.26199 -0.90234,-3.45899 h 1.81641 c 6.488,0 11.87672,5.27658 12.01172,11.76758 l 0.084,3.58985 c 1.523,22.034 -0.2487,31.82809 -4.9707,50.49609 -1.02,4.031 -2.26241,8.05412 -3.69141,11.95312 l -14.84961,40.5293 h -38.1582 l -14.99024,-41.17187 c -1.392,-3.829 -2.60642,-7.77733 -3.60742,-11.73633 -4.649,-18.386 -6.403,-28.01191 -5,-49.50391 l 0.0918,-4.16015 c 0.134,-6.486 5.52075,-11.76368 12.00977,-11.76368 z m 30.5625,3.66797 c 9.811,0.001 17.79507,7.96653 17.83007,17.76953 l -1.36718,12.23047 h -32.92774 l -1.36523,-12.2207 c 0.03,-9.809 8.01508,-17.7793 17.83008,-17.7793 z m -15.00977,43.00196 h 30.01758 l -3.42578,30.64257 c -0.66,5.907 -5.63904,10.36133 -11.58203,10.36133 -5.94301,0 -10.92399,-4.45433 -11.58399,-10.36133 z m 57.13672,83.84765 c 0.49907,0.0238 1.08744,0.31042 1.63476,0.94727 0.19471,-0.16284 0.43879,-0.25234 0.7168,-0.23242 0.46464,0.0333 1.01067,0.3527 1.51953,1.05664 1.11168,1.53786 1.96541,3.20446 2.6875,4.9414 v -1.22851 h 15.8125 v 17.16211 c 0.94082,0.78105 0.71656,1.41414 0,2.13476 v 19.03711 h -15.8125 V 313.1543 c -0.12865,-0.24207 -0.25802,-0.4828 -0.37109,-0.73242 -0.43861,-0.96843 -0.72102,-1.78653 -0.99414,-2.6211 -0.19956,-0.32014 -0.38428,-0.62783 -0.625,-0.95898 -0.68928,-0.94822 -1.44446,-1.85234 -1.9375,-2.92774 -0.50926,-0.66218 -0.85296,-1.2473 -1.26758,-1.97461 -0.15296,-0.26833 -0.27416,-0.55671 -0.44727,-0.8125 -0.22594,-0.33386 -0.4929,-0.63748 -0.74609,-0.95117 -0.24461,-0.30305 -0.49723,-0.59886 -0.74609,-0.89844 -1.22103,-1.46994 -0.54548,-2.72331 0.57617,-2.66992 z m -55.48047,0.81836 h 26.70312 l 0.6875,0.79688 -3.14843,8.58984 c -1.669,4.555 -6.04939,7.61523 -10.90039,7.61523 -4.861,0 -9.24521,-3.06871 -10.90821,-7.63671 l -3.11914,-8.56641 z m -51.14844,4.66602 h 15.8125 v 38.33398 h -15.8125 z m 47.27539,46.54492 h 34.44922 v 11.20312 h -34.44922 z" />
<g
   id="g4">
</g>
<g
   id="g6">
</g>
<g
   id="g8">
</g>
<g
   id="g10">
</g>
<g
   id="g12">
</g>
<g
   id="g14">
</g>
<g
   id="g16">
</g>
<g
   id="g18">
</g>
<g
   id="g20">
</g>
<g
   id="g22">
</g>
<g
   id="g24">
</g>
<g
   id="g26">
</g>
<g
   id="g28">
</g>
<g
   id="g30">
</g>
<g
   id="g32">
</g>
<path
   style="fill:#ff6600;fill-opacity:1;stroke-width:1.58830512"
   d="m 168.73243,284.33401 c -0.45614,-0.73804 -4.4275,-11.30262 -8.82526,-23.47683 -11.3745,-31.48776 -14.39392,-45.53031 -14.4073,-67.00455 -0.01,-15.75942 0.36381,-18.24336 3.16548,-21.04504 1.74714,-1.74713 4.3408,-3.17661 5.76369,-3.17661 2.16398,0 2.42802,1.23386 1.61449,7.54445 -0.56139,4.35476 0.65607,21.83956 2.87962,41.35607 3.07563,26.99547 4.52327,34.89744 7.18108,39.19786 3.61408,5.84771 14.39066,11.96484 21.07852,11.96484 8.98361,0 18.28084,-5.95952 22.77639,-14.59966 2.99819,-5.76232 9.00304,-59.43854 8.33333,-74.49005 -0.48522,-10.90516 -0.26726,-11.98651 2.28169,-11.31994 1.54999,0.40533 4.2304,2.53233 5.95646,4.72666 2.66214,3.38436 3.13308,6.42729 3.10392,20.05562 -0.0435,20.33996 -3.54651,36.32328 -14.66759,66.92482 l -8.64618,23.79145 -18.3795,0.44641 c -10.10873,0.24552 -18.7527,-0.15745 -19.20884,-0.8955 z"
   id="path846"
   inkscape:connector-curvature="0" /><path
   style="fill:#ff6600;fill-opacity:1;stroke-width:1.58830512"
   d="m 181.58094,313.76967 c -1.44885,-1.09196 -3.73926,-4.66565 -5.0898,-7.94153 l -2.45553,-5.95614 h 13.54322 13.54322 l -2.42062,5.79336 c -3.89636,9.3253 -11.02382,12.69921 -17.12049,8.10431 z"
   id="path848"
   inkscape:connector-curvature="0" /><path
   style="fill:#999999;fill-opacity:1;stroke-width:1.58830512"
   d="m 176.34709,153.74793 c 5.0922,-29.26458 6.17046,-42.82118 7.0745,-88.945083 0.95347,-48.645863 1.06861,-50.03161 4.15724,-50.03161 3.09434,0 3.2014,1.377998 4.13399,53.20822 0.80268,44.610073 1.50849,56.249493 4.36784,72.028643 1.87575,10.35123 3.41046,18.92807 3.41046,19.05966 0,0.13158 -5.42505,0.23924 -12.05567,0.23924 h -12.05567 z"
   id="path850"
   inkscape:connector-curvature="0" /><path
   id="path852"
   style="fill:#999999;fill-opacity:1;stroke-width:1.58830512"
   d="m 237.61133,304.63672 v 4.2539 c 0.33863,0.27653 0.72208,0.50017 1.03906,0.80274 0.27415,0.26169 0.50869,0.56088 0.77149,0.83398 0.4298,0.44665 0.88477,0.86649 1.33593,1.29102 0.676,0.71732 1.5135,1.31194 2.13281,2.08398 0.67472,0.84109 0.18166,0.44488 0.60938,0.76563 0.27073,0.15185 0.3178,0.50509 0.53906,0.69922 0.0199,0.0175 0.004,-0.0917 0.0254,-0.0762 0.39056,0.28186 0.60981,0.56144 0.96289,0.94336 l -2.42187,1.04492 c 0.019,0.0132 0.0395,0.024 0.0586,0.0371 1.31388,-0.49393 4.20133,-1.61631 2.50586,-0.79102 -0.70748,0.34438 -1.41389,0.68896 -2.12109,1.0332 0.26341,0.16888 0.5243,0.34115 0.79297,0.5 0.44026,0.30363 0.52994,0.3371 0.91601,0.7168 0.0568,0.0559 0.10958,0.11569 0.16016,0.17773 -0.004,-0.0156 -0.0153,-0.0348 -0.002,-0.043 0.1144,-0.0698 0.25017,0.0994 0.3789,0.13672 0.0502,0.0145 0.10238,0.0135 0.1543,0.0195 0.26244,-0.37677 2.1618,0.31878 2.57226,0.45703 0.25396,0.11288 0.51755,0.2071 0.76172,0.33984 0.61635,0.33509 0.56201,0.47586 1.16016,0.63477 0.15003,0.0399 0.30874,0.03 0.46094,0.0605 0.7349,0.1474 0.60193,0.15049 1.33398,0.53907 0.0675,0.0492 0.10752,0.0946 0.16602,0.14257 v -16.60351 h -7.14649 z m 0,11.19531 v 7.07031 18.26563 h 7.14648 7.14649 v -17.76563 c -0.19988,0.19965 -0.41414,0.40114 -0.67383,0.6211 -0.17647,0.14948 -0.4597,0.0537 -0.68945,0.0801 -0.87267,0.10026 -1.35929,-0.37732 -1.57032,-1.00196 -0.28173,-0.0746 -0.5325,-0.17195 -1.10742,-0.48633 -0.0899,-0.0492 -0.14951,-0.14411 -0.23828,-0.19531 -0.16436,-0.0948 -0.34369,-0.15998 -0.51562,-0.24023 -0.17406,-0.0617 -0.34652,-0.13258 -0.52344,-0.18555 -0.20556,-0.0616 -0.43501,-0.0548 -0.62305,-0.1582 -0.062,-0.0341 0.25655,-0.0376 0.19727,-0.0762 -0.0742,-0.0483 -1.1103,0.20286 -1.28321,0.0547 -0.74638,-0.17537 -1.20743,-0.36584 -1.88672,-0.80859 -0.11923,-0.0777 -0.17315,-0.23007 -0.2832,-0.32031 -0.0965,-0.0791 -0.20312,-0.14436 -0.30469,-0.2168 -0.86018,-0.51804 -1.73872,-1.05245 -2.48828,-1.72656 -0.0142,-0.0128 0.0375,2e-4 0.0566,0 -0.19691,-0.15688 -0.40792,-0.29668 -0.58984,-0.47071 -0.1103,-0.10551 -0.18242,-0.24533 -0.2793,-0.36328 -0.18226,-0.22188 -0.38515,-0.42741 -0.55859,-0.65625 -0.34362,-0.45335 -0.64394,-0.93285 -0.93164,-1.41992 z m 12.55859,7.54883 c 0.0182,0.0198 0.0361,0.0402 0.0527,0.0606 0.11475,-0.0136 0.0851,-0.0333 -0.0527,-0.0606 z" /><path
   style="fill:#999999;fill-opacity:1;stroke-width:1.58830512"
   d="m 123.25247,322.90242 v -18.26551 h 7.14738 7.14737 v 18.26551 18.26551 h -7.14737 -7.14738 z"
   id="path854"
   inkscape:connector-curvature="0" /><path
   style="fill:#999999;fill-opacity:1;stroke-width:1.58830512"
   d="M 126.42908,94.186491 V 75.920982 h 6.35322 6.35322 V 94.186491 112.452 h -6.35322 -6.35322 z"
   id="path856"
   inkscape:connector-curvature="0" /><path
   style="fill:#666666;fill-opacity:1;stroke-width:1.58830512"
   d="M 236.02213,94.186491 V 75.920982 h 6.35322 6.35322 V 94.186491 112.452 h -6.35322 -6.35322 z"
   id="path858"
   inkscape:connector-curvature="0" /><path
   style="fill:#666666;fill-opacity:1;stroke-width:1.58830512"
   d="M 236.97512,94.186491 V 75.920982 h 5.55906 5.55907 V 94.186491 112.452 h -5.55907 -5.55906 z"
   id="path860"
   inkscape:connector-curvature="0" /><path
   style="fill:#666666;fill-opacity:1;stroke-width:1.58830512"
   d="m 127.07838,94.983648 0.49047,-19.062666 h 5.46568 5.46567 V 94.980643 114.0403 l -5.95614,0.003 -5.95615,0.003 0.49047,-19.062666 z"
   id="path862"
   inkscape:connector-curvature="0" /><path
   style="fill:#666666;fill-opacity:1;stroke-width:1.58830512"
   d="m 124.20546,322.90242 v -18.26551 h 6.35322 6.35322 v 18.26551 18.26551 h -6.35322 -6.35322 z"
   id="path864"
   inkscape:connector-curvature="0" /><path
   id="path866"
   style="fill:#4d4d4d;fill-opacity:1;stroke-width:1.58830512"
   d="m 238.5625,304.63672 v 4.98828 c 0.0278,0.0246 0.061,0.0427 0.0879,0.0684 0.27415,0.26169 0.50869,0.56088 0.77149,0.83398 0.4298,0.44665 0.88477,0.86649 1.33593,1.29102 0.676,0.71732 1.5135,1.31194 2.13281,2.08398 0.67472,0.84109 0.18166,0.44488 0.60938,0.76563 0.27073,0.15185 0.3178,0.50509 0.53906,0.69922 0.0199,0.0175 0.004,-0.0917 0.0254,-0.0762 0.39056,0.28186 0.60981,0.56144 0.96289,0.94336 l -2.42187,1.04492 c 0.019,0.0132 0.0395,0.024 0.0586,0.0371 1.31388,-0.49393 4.20133,-1.61631 2.50586,-0.79102 -0.70748,0.34438 -1.41389,0.68896 -2.12109,1.0332 0.26341,0.16888 0.5243,0.34115 0.79297,0.5 0.44026,0.30363 0.52994,0.3371 0.91601,0.7168 0.0568,0.0559 0.10958,0.11569 0.16016,0.17773 -0.004,-0.0156 -0.0153,-0.0348 -0.002,-0.043 0.1144,-0.0698 0.25017,0.0994 0.3789,0.13672 0.0502,0.0145 0.10238,0.0135 0.1543,0.0195 0.26244,-0.37677 2.1618,0.31878 2.57226,0.45703 0.25396,0.11288 0.51755,0.2071 0.76172,0.33984 0.61635,0.33509 0.56201,0.47586 1.16016,0.63477 0.15003,0.0399 0.30874,0.03 0.46094,0.0605 0.47606,0.0955 0.64649,0.16677 0.86523,0.28516 v -16.20703 h -6.35351 z m 0,12.63867 v 5.62695 18.26563 h 6.35352 6.35351 v -17.17969 c -0.0147,0.0125 -0.0242,0.0225 -0.0391,0.0352 -0.17647,0.14948 -0.4597,0.0537 -0.68945,0.0801 -0.87267,0.10026 -1.35929,-0.37732 -1.57032,-1.00196 -0.28173,-0.0746 -0.5325,-0.17195 -1.10742,-0.48633 -0.0899,-0.0492 -0.14951,-0.14411 -0.23828,-0.19531 -0.16436,-0.0948 -0.3437,-0.15998 -0.51562,-0.24023 -0.17406,-0.0617 -0.34652,-0.13258 -0.52344,-0.18555 -0.20556,-0.0616 -0.43501,-0.0548 -0.62305,-0.1582 -0.062,-0.0341 0.25655,-0.0376 0.19727,-0.0762 -0.0742,-0.0483 -1.1103,0.20286 -1.28321,0.0547 -0.74638,-0.17537 -1.20743,-0.36584 -1.88672,-0.80859 -0.11923,-0.0777 -0.17315,-0.23007 -0.2832,-0.32031 -0.0965,-0.0791 -0.20312,-0.14436 -0.30469,-0.2168 -0.86018,-0.51804 -1.73872,-1.05245 -2.48828,-1.72656 -0.0142,-0.0128 0.0375,2e-4 0.0566,0 -0.19691,-0.15688 -0.40792,-0.29668 -0.58984,-0.47071 -0.1103,-0.10551 -0.18242,-0.24533 -0.2793,-0.36328 -0.17581,-0.21402 -0.36981,-0.41361 -0.53906,-0.63281 z m 11.60742,6.10547 c 0.0182,0.0198 0.0361,0.0402 0.0527,0.0606 0.11475,-0.0136 0.0851,-0.0333 -0.0527,-0.0606 z" /><path
   style="fill:#1a1a1a;fill-opacity:1;stroke-width:1.58830512"
   d="m 178.07092,158.43381 c -1.49663,-0.93092 -0.9196,-14.39789 0.73139,-17.06924 0.54152,-0.8762 1.00758,-3.27287 1.03569,-5.32593 0.0281,-2.05305 0.39664,-6.59178 0.81896,-10.08605 1.331,-11.01252 2.40763,-32.138962 3.61776,-70.990187 1.05658,-33.921563 1.87176,-41.517629 4.20508,-39.184312 1.40355,1.403552 4.62166,68.931398 5.46334,114.641019 0.0452,2.45659 0.54212,5.21062 1.1042,6.12008 0.56207,0.90946 1.27821,4.90585 1.59142,8.88086 0.3132,3.97501 0.96774,8.48216 1.45452,10.01588 0.76704,2.41671 -0.41539,2.86077 -8.86673,3.32983 -5.36349,0.29768 -10.38352,0.1483 -11.15563,-0.33195 z"
   id="path868"
   inkscape:connector-curvature="0" /><path
   style="fill:#ff6600;fill-opacity:1;stroke-width:1.58830512"
   d="m 178.24666,151.76255 c 0.0214,-3.71266 0.70303,-9.62478 1.51484,-13.13805 1.44155,-6.23854 3.61604,-42.072837 5.71644,-94.203319 0.57485,-14.267403 1.60119,-25.345831 2.28075,-24.618728 1.1296,1.208628 4.07229,53.960547 5.38982,96.620307 0.29678,9.60925 1.36007,22.423 2.36285,28.47501 2.13288,12.87233 1.64339,13.554 -9.75908,13.59075 l -6.15468,-1.56401 z"
   id="path870"
   inkscape:connector-curvature="0"
   sodipodi:nodetypes="ccssscccc" /><path
   style="fill:#ff6600;fill-opacity:1;stroke-width:1.58830512"
   d="m 205.20901,37.801661 v -4.764916 h 20.64797 20.64797 v 4.764916 4.764915 h -20.64797 -20.64797 z"
   id="path872"
   inkscape:connector-curvature="0" /><path
   style="fill:#ff6600;fill-opacity:1;stroke-width:1.58830512"
   d="m 138.96333,42.975567 c 5.93292,-0.306428 15.2245,-0.304154 20.64797,0.0051 5.42347,0.309207 0.56927,0.55992 -10.78712,0.557142 -11.35638,-0.0028 -15.79376,-0.255766 -9.86085,-0.562194 z"
   id="path874"
   inkscape:connector-curvature="0" /><path
   style="fill:#ff6600;fill-opacity:1;stroke-width:1.58830512"
   d="m 162.75208,43.0542 c 1.54537,-0.402704 3.68958,-0.37622 4.76492,0.05885 1.07533,0.435074 -0.18906,0.764559 -2.80976,0.73219 -2.62071,-0.03237 -3.50053,-0.388338 -1.95516,-0.791043 z"
   id="path876"
   inkscape:connector-curvature="0" /><path
   style="fill:#ff6600;fill-opacity:1;stroke-width:1.58830512"
   d="m 128.97037,37.801661 v -4.764916 h 19.85381 19.85382 v 4.764916 4.764915 h -19.85382 -19.85381 z"
   id="path878"
   inkscape:connector-curvature="0" /><path
   style="fill:#ff6600;fill-opacity:1;stroke-width:1.58830512"
   d="m 129.60569,37.801661 v -4.764916 h 19.05966 19.05967 v 4.764916 4.764915 h -19.05967 -19.05966 z"
   id="path880"
   inkscape:connector-curvature="0" /><rect
   style="fill:#000000;fill-opacity:1"
   id="rect1064"
   width="16.336527"
   height="24.528046"
   x="229.11266"
   y="294.53827" /><rect
   style="fill:#000000;fill-opacity:1"
   id="rect1066"
   width="31.446836"
   height="46.889481"
   x="226.30492"
   y="299.31143" /><rect
   style="fill:#000000;fill-opacity:1"
   id="rect1068"
   width="30.042959"
   height="48.854904"
   x="114.8371"
   y="298.74988" /><rect
   style="fill:#000000;fill-opacity:1"
   id="rect1070"
   width="27.796757"
   height="49.978008"
   x="117.08331"
   y="68.514122" /><rect
   style="fill:#ff6600;fill-opacity:1"
   id="rect1072"
   width="25.550554"
   height="47.731804"
   x="228.55112"
   y="70.479546" /><path
   style="fill:#ff6600;fill-opacity:1;stroke-width:0.28077531"
   d="m 170.23514,356.33368 v -5.47512 h 17.1273 17.12729 v 5.47512 5.47512 h -17.12729 -17.1273 z"
   id="path1074"
   inkscape:connector-curvature="0" /><rect
   style="fill:#000000;fill-opacity:1"
   id="rect1078"
   width="28.919853"
   height="51.662663"
   x="228.55112"
   y="70.479546" /><path
   style="fill:#ff6600;fill-opacity:1;stroke-width:0.28077531"
   d="m 172.30561,284.88412 c -1.34122,-0.13152 -2.6855,-0.3175 -2.98729,-0.41329 -0.61172,-0.19415 -2.28009,-4.39905 -8.19428,-20.65262 -8.0214,-22.04466 -11.90049,-35.20517 -13.7558,-46.66906 -1.18014,-7.29203 -1.43742,-10.83793 -1.59486,-21.9805 -0.16051,-11.36059 0.0646,-16.13049 0.89076,-18.87588 0.59594,-1.9803 2.95511,-4.52742 5.26023,-5.67931 2.15338,-1.07605 3.40016,-1.11993 4.04079,-0.14221 0.40393,0.61647 0.43325,1.10016 0.21705,3.57989 -0.84166,9.65361 0.56969,28.8751 4.26159,58.03946 2.48651,19.64231 3.86697,24.53731 8.10291,28.73221 3.41965,3.38652 8.36819,6.37036 13.35725,8.05408 2.83762,0.95765 6.87461,1.07005 10.26811,0.28588 8.67859,-2.00544 16.87061,-9.3941 18.78565,-16.9434 2.08023,-8.20052 4.85896,-29.94073 6.78954,-53.11987 0.32193,-3.86526 0.48107,-9.15974 0.51058,-16.9869 0.0236,-6.25428 0.13788,-11.6554 0.254,-12.0025 0.5355,-1.60077 3.01866,-0.78664 5.94224,1.94823 3.80543,3.5598 4.51135,5.59863 4.91157,14.18581 0.45215,9.70106 -0.22015,21.69555 -1.71168,30.53813 -2.17199,12.87677 -5.66595,24.47193 -15.74455,52.25039 l -5.61788,15.4839 -2.01905,0.17067 c -3.43171,0.29009 -29.38636,0.44995 -31.96688,0.19689 z"
   id="path1080"
   inkscape:connector-curvature="0" /><rect
   style="fill:#ff6600;fill-opacity:1"
   id="rect1084"
   width="42.142609"
   height="12.330078"
   x="127.58984"
   y="31.759766" /><rect
   style="fill:#ff6600;fill-opacity:1"
   id="rect1086"
   width="42.175781"
   height="12.330078"
   x="205.07422"
   y="31.759766" /><path
   style="fill:#ff6600;fill-opacity:1;stroke-width:0.39707628"
   d="m 183.41233,254.82599 c -2.32788,-0.82486 -5.06793,-3.37662 -6.24555,-5.81638 -0.88153,-1.82632 -1.18867,-3.80332 -2.60415,-16.76235 -0.88261,-8.0805 -1.7018,-15.27255 -1.82042,-15.98232 l -0.21567,-1.2905 h 14.89843 14.89842 l -0.18688,1.09196 c -0.10278,0.60058 -0.91025,7.61394 -1.79438,15.58525 -0.88412,7.9713 -1.89497,15.38098 -2.24631,16.46595 -0.85383,2.63666 -3.9797,5.78416 -6.64701,6.69301 -2.36427,0.80559 -5.78792,0.81214 -8.03648,0.0154 z"
   id="path1117"
   inkscape:connector-curvature="0" /><path
   style="fill:#000000;fill-opacity:1;stroke-width:0.39707628"
   d="m 170.38753,195.02136 c -0.78902,-7.16956 -0.61858,-9.04231 1.17507,-12.91146 1.37385,-2.9636 2.83602,-4.74514 5.51497,-6.71957 5.06854,-3.73561 12.02894,-4.38307 17.74519,-1.65066 3.62242,1.73154 6.67569,4.68344 8.31854,8.04236 1.91106,3.9073 2.10461,5.85053 1.31866,13.23933 l -0.68636,6.45249 h -16.33798 -16.33798 z"
   id="path1119"
   inkscape:connector-curvature="0" /><path
   style="fill:#4d4d4d;fill-opacity:1;stroke-width:0.39707628"
   d="m 183.0077,254.49638 c -2.02166,-0.8792 -4.7246,-3.63697 -5.63199,-5.74626 -0.98691,-2.29412 -1.21414,-3.79546 -3.0307,-20.02395 -0.76107,-6.79908 -1.45674,-12.67466 -1.54595,-13.05684 -0.15222,-0.65217 0.73858,-0.69489 14.49246,-0.69489 14.36813,0 14.65465,0.0155 14.65465,0.79063 0,1.30156 -3.13783,27.38064 -3.60325,29.9473 -0.76156,4.19972 -2.79465,6.94585 -6.32366,8.54144 -2.14087,0.96796 -7.04029,1.09984 -9.01156,0.24257 z"
   id="path1121"
   inkscape:connector-curvature="0" /><path
   style="fill:#333333;fill-opacity:1;stroke-width:0.39707628"
   d="m 171.2223,200.38189 c -0.57063,-2.93781 -1.12613,-10.34502 -0.95509,-12.7355 0.39521,-5.52359 4.36641,-11.16071 9.58171,-13.60124 6.75819,-3.16254 13.79758,-2.03844 19.33411,3.08741 2.76792,2.56261 5.02896,6.71814 5.40725,9.93789 0.21897,1.86381 -0.37272,10.53618 -0.90821,13.31144 l -0.2107,1.09196 H 187.45289 171.4344 Z"
   id="path1123"
   inkscape:connector-curvature="0" /><rect
   style="fill:#000000;fill-opacity:1"
   id="rect1125"
   width="28.919861"
   height="51.662666"
   x="228.55112"
   y="70.479546" /><rect
   style="fill:#000000;fill-opacity:1"
   id="rect1127"
   width="32.328735"
   height="54.837784"
   x="225.14224"
   y="67.304428" /></svg>